<svg xmlns="http://www.w3.org/2000/svg" xmlns:xlink="http://www.w3.org/1999/xlink" width="1680" height="775" viewBox="0 0 1680 775">
  <defs>
    <linearGradient id="linear-gradient" x1="0.5" x2="0.5" y2="1" gradientUnits="objectBoundingBox">
      <stop offset="0" stop-color="#1fb4c1"/>
      <stop offset="1" stop-color="#1590dd"/>
    </linearGradient>
    <clipPath id="clip-path">
      <rect id="Rectangle_4694" data-name="Rectangle 4694" width="1680" height="775" transform="translate(0 3400)" fill="url(#linear-gradient)"/>
    </clipPath>
    <linearGradient id="linear-gradient-3" x1="0.901" y1="0.091" x2="0.053" y2="0.956" gradientUnits="objectBoundingBox">
      <stop offset="0" stop-color="#7395ff" stop-opacity="0"/>
      <stop offset="1" stop-color="#7395ff"/>
    </linearGradient>
    <linearGradient id="linear-gradient-9" y1="0.5" x2="1" y2="0.5" gradientUnits="objectBoundingBox">
      <stop offset="0.144" stop-color="#44a6ff"/>
      <stop offset="1" stop-color="#0e9fff"/>
    </linearGradient>
    <filter id="Path_6947" x="1335.425" y="-215.859" width="531.027" height="622.972" filterUnits="userSpaceOnUse">
      <feOffset dx="-1.333" dy="3.333" input="SourceAlpha"/>
      <feGaussianBlur stdDeviation="1" result="blur"/>
      <feFlood flood-color="#6082bf" flood-opacity="0.6"/>
      <feComposite operator="in" in2="blur"/>
      <feComposite in="SourceGraphic"/>
    </filter>
    <linearGradient id="linear-gradient-10" x1="0.598" y1="-0.115" x2="1.45" y2="-0.115" gradientUnits="objectBoundingBox">
      <stop offset="0.144" stop-color="#a5b8ff"/>
      <stop offset="1" stop-color="#7395ff"/>
    </linearGradient>
    <filter id="Path_6948" x="753.432" y="545.296" width="622.639" height="531.36" filterUnits="userSpaceOnUse">
      <feOffset dx="-1.333" dy="3.333" input="SourceAlpha"/>
      <feGaussianBlur stdDeviation="1" result="blur-2"/>
      <feFlood flood-color="#a9acbf" flood-opacity="0.6"/>
      <feComposite operator="in" in2="blur-2"/>
      <feComposite in="SourceGraphic"/>
    </filter>
    <filter id="Path_6949" x="555.873" y="-460.526" width="636.221" height="672.517" filterUnits="userSpaceOnUse">
      <feOffset dx="-1.333" dy="3.333" input="SourceAlpha"/>
      <feGaussianBlur stdDeviation="1" result="blur-3"/>
      <feFlood flood-color="#6082bf" flood-opacity="0.6"/>
      <feComposite operator="in" in2="blur-3"/>
      <feComposite in="SourceGraphic"/>
    </filter>
    <linearGradient id="linear-gradient-12" x1="0.881" y1="0.15" x2="-0.238" y2="1.317" gradientUnits="objectBoundingBox">
      <stop offset="0" stop-color="#a3c0ff"/>
      <stop offset="0.736" stop-color="#a3b6f4" stop-opacity="0"/>
    </linearGradient>
    <linearGradient id="linear-gradient-14" x1="0.031" y1="0.425" x2="0.907" y2="0.425" xlink:href="#linear-gradient-12"/>
    <linearGradient id="linear-gradient-15" x1="1.63" y1="0.963" x2="2.505" y2="0.963" xlink:href="#linear-gradient-12"/>
    <linearGradient id="linear-gradient-17" x1="1.686" y1="-0.701" x2="0.022" y2="0.995" xlink:href="#linear-gradient-3"/>
  </defs>
  <g id="Group_35775" data-name="Group 35775" transform="translate(0 -3674)">
    <rect id="Rectangle_4674" data-name="Rectangle 4674" width="1680" height="775" transform="translate(0 3674)" fill="url(#linear-gradient)"/>
    <g id="Mask_Group_153" data-name="Mask Group 153" transform="translate(0 274)" opacity="0.4" clip-path="url(#clip-path)">
      <g id="Group_33954" data-name="Group 33954" transform="translate(19.565 2996.043)" style="mix-blend-mode: screen;isolation: isolate">
        <path id="Path_6941" data-name="Path 6941" d="M295.982,655.738h0a37.063,37.063,0,0,1,0-52.414l789.83-789.83a37.063,37.063,0,0,1,52.414,0h0a37.059,37.059,0,0,1,0,52.414L348.4,655.738A37.063,37.063,0,0,1,295.982,655.738Z" transform="translate(445.877 11.677)" opacity="0.3" fill="url(#linear-gradient-3)" style="mix-blend-mode: multiply;isolation: isolate"/>
        <path id="Path_6942" data-name="Path 6942" d="M393.185,652.9h0a37.063,37.063,0,0,1,0-52.414l789.83-789.83a37.059,37.059,0,0,1,52.414,0h0a37.063,37.063,0,0,1,0,52.414L445.6,652.9A37.063,37.063,0,0,1,393.185,652.9Z" transform="translate(546.377 8.743)" opacity="0.3" fill="url(#linear-gradient-3)" style="mix-blend-mode: multiply;isolation: isolate"/>
        <path id="Path_6943" data-name="Path 6943" d="M289.7,772.89h0a37.063,37.063,0,0,1,0-52.414l789.83-789.83a37.063,37.063,0,0,1,52.414,0h0a37.063,37.063,0,0,1,0,52.414L342.118,772.89A37.065,37.065,0,0,1,289.7,772.89Z" transform="translate(439.384 132.803)" opacity="0.6" fill="url(#linear-gradient-3)" style="mix-blend-mode: multiply;isolation: isolate"/>
        <path id="Path_6944" data-name="Path 6944" d="M-48.846,1212.445h0a37.063,37.063,0,0,1,0-52.414L740.984,370.2a37.063,37.063,0,0,1,52.414,0h0a37.063,37.063,0,0,1,0,52.414L3.568,1212.445A37.059,37.059,0,0,1-48.846,1212.445Z" transform="translate(89.352 587.268)" opacity="0.6" fill="url(#linear-gradient-3)" style="mix-blend-mode: multiply;isolation: isolate"/>
        <path id="Path_6945" data-name="Path 6945" d="M418.937,961.417h0a37.063,37.063,0,0,1,0-52.414l789.83-789.83a37.066,37.066,0,0,1,52.416,0h0a37.063,37.063,0,0,1,0,52.414l-789.83,789.83A37.063,37.063,0,0,1,418.937,961.417Z" transform="translate(573 327.725)" opacity="0.6" fill="url(#linear-gradient-3)" style="mix-blend-mode: multiply;isolation: isolate"/>
        <path id="Path_6946" data-name="Path 6946" d="M-100.954,1136h0a37.063,37.063,0,0,1,0-52.414l789.83-789.83a37.063,37.063,0,0,1,52.414,0h0a37.063,37.063,0,0,1,0,52.414L-48.54,1136A37.063,37.063,0,0,1-100.954,1136Z" transform="translate(35.477 508.231)" opacity="0.6" fill="url(#linear-gradient-3)" style="mix-blend-mode: multiply;isolation: isolate"/>
        <g transform="matrix(1, 0, 0, 1, -19.57, 403.96)" filter="url(#Path_6947)" style="mix-blend-mode: screen;isolation: isolate">
          <path id="Path_6947-2" data-name="Path 6947" d="M1063.872,166.61l-.382-.382-35.581-35.579-.382-.382L991.946,94.685l-.382-.382L955.982,58.723l-.382-.384L920.021,22.759l-.382-.382L883.675-13.587,811.544,58.546a25.156,25.156,0,0,0,0,35.579l.382.382a25.159,25.159,0,0,1,0,35.581L582.177,359.837a25.163,25.163,0,0,0,0,35.581l.767.765a25.157,25.157,0,0,0,35.579,0L805,209.7a25.159,25.159,0,0,1,35.581,0h0a25.157,25.157,0,0,1,0,35.579L694.347,391.519a25.159,25.159,0,0,0,0,35.581l.765.765a25.157,25.157,0,0,0,35.579,0L920.2,238.359a25.161,25.161,0,0,1,35.579,0h0a25.159,25.159,0,0,1,0,35.581l-285.4,285.4a25.157,25.157,0,0,0,0,35.579l.765.767a25.163,25.163,0,0,0,35.581,0l393.11-393.11Z" transform="translate(764.95 -202.27)" opacity="0.2" fill="url(#linear-gradient-9)"/>
        </g>
        <g transform="matrix(1, 0, 0, 1, -19.57, 403.96)" filter="url(#Path_6948)" style="mix-blend-mode: screen;isolation: isolate">
          <path id="Path_6948-2" data-name="Path 6948" d="M468.862,849.709l-.382-.384L432.9,813.745l-.384-.382-35.579-35.579-.382-.384-35.581-35.579-.382-.382-35.579-35.581-.382-.382-35.964-35.962L360.8,597.38a25.157,25.157,0,0,1,35.579,0l.382.382a25.163,25.163,0,0,0,35.581,0l229.748-229.75a25.159,25.159,0,0,1,35.581,0l.765.765a25.159,25.159,0,0,1,0,35.581L511.953,590.839a25.163,25.163,0,0,0,0,35.581h0a25.163,25.163,0,0,0,35.581,0L693.771,480.182a25.163,25.163,0,0,1,35.581,0l.765.765a25.163,25.163,0,0,1,0,35.581l-189.507,189.5a25.163,25.163,0,0,0,0,35.581h0a25.163,25.163,0,0,0,35.582,0l285.4-285.4a25.157,25.157,0,0,1,35.579,0l.767.765a25.16,25.16,0,0,1,0,35.579L504.826,885.67Z" transform="translate(469.1 184.65)" opacity="0.2" fill="url(#linear-gradient-10)"/>
        </g>
        <g transform="matrix(1, 0, 0, 1, -19.57, 403.96)" filter="url(#Path_6949)" style="mix-blend-mode: screen;isolation: isolate">
          <path id="Path_6949-2" data-name="Path 6949" d="M785.79,46.317l-.382-.382L749.828,10.353l-.382-.382L713.864-25.608l-.382-.382L677.9-61.572l-.382-.382L641.939-97.534l-.382-.382L605.595-133.88,533.462-61.749a25.163,25.163,0,0,0,0,35.581l.382.382a25.157,25.157,0,0,1,0,35.579L257.06,286.58a25.159,25.159,0,0,0,0,35.581l.765.765a25.16,25.16,0,0,0,35.579,0L526.923,89.408a25.157,25.157,0,0,1,35.579,0h0a25.159,25.159,0,0,1,0,35.581l-363.6,363.6a25.157,25.157,0,0,0,0,35.579l.765.767a25.163,25.163,0,0,0,35.581,0L642.116,118.066a25.159,25.159,0,0,1,35.581,0h0a25.16,25.16,0,0,1,0,35.579L358.244,473.1a25.157,25.157,0,0,0,0,35.579l.765.765a25.157,25.157,0,0,0,35.579,0L821.754,82.279Z" transform="translate(368.67 -326.65)" opacity="0.2" fill="url(#linear-gradient-9)"/>
        </g>
        <path id="Path_6950" data-name="Path 6950" d="M855.587-18.24a10.256,10.256,0,0,1-14.5,0,10.256,10.256,0,0,1,0-14.5,10.256,10.256,0,0,1,14.5,0A10.256,10.256,0,0,1,855.587-18.24ZM879.236-9.1a10.256,10.256,0,0,0-14.5,0,10.256,10.256,0,0,0,0,14.5,10.256,10.256,0,0,0,14.5,0A10.256,10.256,0,0,0,879.236-9.1Zm23.648,23.648a10.256,10.256,0,1,0,0,14.5A10.257,10.257,0,0,0,902.884,14.553ZM926.532,38.2a10.256,10.256,0,1,0,0,14.5A10.253,10.253,0,0,0,926.532,38.2Zm23.648,23.646a10.257,10.257,0,1,0,0,14.506A10.256,10.256,0,0,0,950.181,61.847ZM973.829,85.5a10.257,10.257,0,1,0,0,14.506A10.256,10.256,0,0,0,973.829,85.5Zm23.648,23.648a10.257,10.257,0,1,0,0,14.506A10.256,10.256,0,0,0,997.478,109.144ZM833.833-10.987a10.255,10.255,0,0,0-14.506,0,10.256,10.256,0,0,0,0,14.5,10.259,10.259,0,0,0,14.506,0A10.256,10.256,0,0,0,833.833-10.987Zm23.646,23.648a10.256,10.256,0,1,0,0,14.5A10.253,10.253,0,0,0,857.479,12.661Zm23.648,23.648a10.256,10.256,0,1,0,0,14.5A10.253,10.253,0,0,0,881.127,36.309Zm23.648,23.646a10.257,10.257,0,1,0,0,14.506A10.256,10.256,0,0,0,904.776,59.956ZM928.424,83.6a10.256,10.256,0,1,0,0,14.5A10.256,10.256,0,0,0,928.424,83.6Zm23.648,23.648a10.256,10.256,0,1,0,0,14.5A10.256,10.256,0,0,0,952.072,107.253ZM975.721,130.9a10.256,10.256,0,1,0,0,14.5A10.256,10.256,0,0,0,975.721,130.9ZM812.076,10.767a10.257,10.257,0,1,0,0,14.506A10.256,10.256,0,0,0,812.076,10.767Zm23.648,23.648a10.257,10.257,0,1,0,0,14.506A10.259,10.259,0,0,0,835.724,34.416Zm23.648,23.648a10.256,10.256,0,1,0,0,14.5A10.259,10.259,0,0,0,859.372,58.064Zm23.646,23.648a10.256,10.256,0,1,0,0,14.5A10.256,10.256,0,0,0,883.019,81.713Zm23.648,23.648a10.256,10.256,0,1,0,0,14.5A10.257,10.257,0,0,0,906.667,105.361Zm23.648,23.648a10.256,10.256,0,1,0,0,14.5A10.257,10.257,0,0,0,930.316,129.009Zm23.648,23.648a10.256,10.256,0,1,0,0,14.5A10.256,10.256,0,0,0,953.964,152.658ZM790.319,32.524a10.256,10.256,0,1,0,0,14.5A10.256,10.256,0,0,0,790.319,32.524Zm23.648,23.648a10.256,10.256,0,1,0,0,14.5A10.256,10.256,0,0,0,813.967,56.173Zm23.648,23.648a10.256,10.256,0,1,0,0,14.5A10.256,10.256,0,0,0,837.616,79.821Zm23.648,23.648a10.256,10.256,0,1,0,0,14.5A10.257,10.257,0,0,0,861.264,103.47Zm23.648,23.648a10.257,10.257,0,1,0,0,14.5A10.259,10.259,0,0,0,884.912,127.118Zm23.648,23.648a10.256,10.256,0,1,0,0,14.5A10.259,10.259,0,0,0,908.561,150.766Zm23.646,23.648a10.256,10.256,0,1,0,0,14.5A10.253,10.253,0,0,0,932.207,174.415ZM768.562,54.281a10.256,10.256,0,1,0,0,14.5A10.256,10.256,0,0,0,768.562,54.281ZM792.21,77.93a10.256,10.256,0,1,0,0,14.5A10.257,10.257,0,0,0,792.21,77.93Zm23.648,23.648a10.256,10.256,0,1,0,0,14.5A10.256,10.256,0,0,0,815.859,101.578Zm23.648,23.648a10.256,10.256,0,1,0,0,14.5A10.253,10.253,0,0,0,839.507,125.226Zm23.648,23.648a10.256,10.256,0,1,0,0,14.5A10.253,10.253,0,0,0,863.156,148.875ZM886.8,172.521a10.257,10.257,0,1,0,0,14.506A10.256,10.256,0,0,0,886.8,172.521Zm23.648,23.648a10.257,10.257,0,1,0,0,14.506A10.256,10.256,0,0,0,910.452,196.169ZM746.805,76.038a10.256,10.256,0,1,0,0,14.5A10.253,10.253,0,0,0,746.805,76.038Zm23.648,23.648a10.256,10.256,0,1,0,0,14.5A10.253,10.253,0,0,0,770.453,99.686ZM794.1,123.335a10.256,10.256,0,1,0,0,14.5A10.253,10.253,0,0,0,794.1,123.335Zm23.648,23.646a10.257,10.257,0,1,0,0,14.506A10.256,10.256,0,0,0,817.75,146.981ZM841.4,170.63a10.256,10.256,0,1,0,0,14.5A10.256,10.256,0,0,0,841.4,170.63Zm23.648,23.648a10.256,10.256,0,1,0,0,14.5A10.256,10.256,0,0,0,865.047,194.278ZM888.7,217.926a10.256,10.256,0,1,0,0,14.5A10.257,10.257,0,0,0,888.7,217.926Zm-140-96.485a10.257,10.257,0,1,0,0,14.506A10.259,10.259,0,0,0,748.7,121.441Zm23.648,23.648a10.256,10.256,0,1,0,0,14.5A10.259,10.259,0,0,0,772.347,145.09Zm23.646,23.648a10.256,10.256,0,1,0,0,14.5A10.256,10.256,0,0,0,795.994,168.738Zm23.648,23.648a10.256,10.256,0,1,0,0,14.5A10.256,10.256,0,0,0,819.642,192.386Zm23.648,23.648a10.256,10.256,0,1,0,0,14.5A10.256,10.256,0,0,0,843.29,216.035Zm23.648,23.648a10.256,10.256,0,1,0,0,14.5A10.256,10.256,0,0,0,866.939,239.683Zm-140-96.485a10.256,10.256,0,1,0,0,14.5A10.256,10.256,0,0,0,726.942,143.2Zm23.648,23.648a10.256,10.256,0,1,0,0,14.5A10.257,10.257,0,0,0,750.59,166.846Zm23.648,23.648a10.256,10.256,0,1,0,0,14.5A10.256,10.256,0,0,0,774.239,190.495Zm23.648,23.648a10.257,10.257,0,1,0,0,14.5A10.259,10.259,0,0,0,797.887,214.143Zm-92.7-49.188a10.256,10.256,0,1,0,0,14.5A10.256,10.256,0,0,0,705.185,164.955ZM728.833,188.6a10.256,10.256,0,1,0,0,14.5A10.256,10.256,0,0,0,728.833,188.6Zm23.648,23.648a10.256,10.256,0,1,0,0,14.5A10.253,10.253,0,0,0,752.482,212.252ZM776.13,235.9a10.256,10.256,0,1,0,0,14.5A10.253,10.253,0,0,0,776.13,235.9Zm-92.7-49.188a10.256,10.256,0,1,0,0,14.5A10.253,10.253,0,0,0,683.428,186.712Zm23.648,23.648a10.256,10.256,0,1,0,0,14.5A10.253,10.253,0,0,0,707.077,210.36Zm23.648,23.646a10.257,10.257,0,1,0,0,14.506A10.257,10.257,0,0,0,730.725,234.007Zm23.648,23.648a10.256,10.256,0,1,0,0,14.506A10.256,10.256,0,0,0,754.373,257.655Zm-69.052-25.54a10.257,10.257,0,1,0,0,14.5A10.259,10.259,0,0,0,685.322,232.115Zm47.295,47.3a10.256,10.256,0,1,0,0,14.5A10.256,10.256,0,0,0,732.616,279.412Zm-69.052-25.54a10.256,10.256,0,1,0,0,14.5A10.256,10.256,0,0,0,663.565,253.872Zm47.3,47.3a10.257,10.257,0,1,0,0,14.5A10.259,10.259,0,0,0,710.862,301.169Zm-69.054-25.54a10.256,10.256,0,1,0,0,14.5A10.253,10.253,0,0,0,641.808,275.629Zm-21.757,21.757a10.256,10.256,0,1,0,0,14.5A10.253,10.253,0,0,0,620.051,297.386ZM598.3,319.14a10.257,10.257,0,1,0,0,14.5A10.259,10.259,0,0,0,598.3,319.14ZM576.54,340.9a10.256,10.256,0,1,0,0,14.5A10.256,10.256,0,0,0,576.54,340.9Z" transform="translate(729.071 178.772)" opacity="0.3" fill="url(#linear-gradient-12)" style="mix-blend-mode: screen;isolation: isolate"/>
        <path id="Path_6951" data-name="Path 6951" d="M861.132,203.226a6.978,6.978,0,1,1,0-9.869A6.977,6.977,0,0,1,861.132,203.226Zm16.09,6.222a6.978,6.978,0,1,0,0,9.869A6.977,6.977,0,0,0,877.223,209.448Zm16.09,16.09a6.978,6.978,0,1,0,0,9.869A6.978,6.978,0,0,0,893.313,225.539Zm16.092,16.09a6.98,6.98,0,1,0,0,9.871A6.98,6.98,0,0,0,909.405,241.629Zm16.09,16.092a6.978,6.978,0,1,0,0,9.869A6.978,6.978,0,0,0,925.5,257.721Zm16.09,16.09a6.978,6.978,0,1,0,0,9.869A6.978,6.978,0,0,0,941.586,273.812Zm16.092,16.09a6.979,6.979,0,1,0,0,9.869A6.98,6.98,0,0,0,957.678,289.9ZM846.327,208.161a6.978,6.978,0,1,0,0,9.869A6.978,6.978,0,0,0,846.327,208.161Zm16.092,16.09a6.979,6.979,0,1,0,0,9.869A6.98,6.98,0,0,0,862.42,224.251Zm16.09,16.09a6.979,6.979,0,1,0,0,9.871A6.981,6.981,0,0,0,878.51,240.341Zm16.09,16.092a6.978,6.978,0,1,0,0,9.869A6.978,6.978,0,0,0,894.6,256.434Zm16.092,16.09a6.979,6.979,0,1,0,0,9.869A6.98,6.98,0,0,0,910.693,272.524Zm16.09,16.09a6.979,6.979,0,1,0,0,9.871A6.978,6.978,0,0,0,926.783,288.614Zm16.09,16.092a6.978,6.978,0,1,0,0,9.869A6.978,6.978,0,0,0,942.873,304.707ZM831.524,222.964a6.979,6.979,0,1,0,0,9.871A6.978,6.978,0,0,0,831.524,222.964Zm16.09,16.09a6.979,6.979,0,1,0,0,9.871A6.981,6.981,0,0,0,847.615,239.054Zm16.092,16.092a6.979,6.979,0,1,0,0,9.869A6.98,6.98,0,0,0,863.707,255.146Zm16.09,16.09a6.978,6.978,0,1,0,0,9.869A6.977,6.977,0,0,0,879.8,271.237Zm16.09,16.09a6.979,6.979,0,1,0,0,9.871A6.977,6.977,0,0,0,895.888,287.327Zm16.09,16.092a6.978,6.978,0,1,0,0,9.869A6.978,6.978,0,0,0,911.978,303.419Zm16.092,16.09a6.978,6.978,0,1,0,0,9.869A6.977,6.977,0,0,0,928.071,319.51ZM816.722,237.769a6.979,6.979,0,1,0,0,9.869A6.98,6.98,0,0,0,816.722,237.769Zm16.09,16.09a6.978,6.978,0,1,0,0,9.869A6.978,6.978,0,0,0,832.812,253.859Zm16.09,16.09a6.978,6.978,0,1,0,0,9.869A6.977,6.977,0,0,0,848.9,269.949Zm16.092,16.09a6.98,6.98,0,1,0,0,9.871A6.984,6.984,0,0,0,864.995,286.04Zm16.09,16.092a6.978,6.978,0,1,0,0,9.869A6.977,6.977,0,0,0,881.085,302.132Zm16.09,16.09a6.978,6.978,0,1,0,0,9.869A6.978,6.978,0,0,0,897.175,318.222Zm16.09,16.09a6.978,6.978,0,1,0,0,9.869A6.978,6.978,0,0,0,913.266,334.313ZM801.917,252.571a6.978,6.978,0,1,0,0,9.869A6.977,6.977,0,0,0,801.917,252.571Zm16.092,16.09a6.98,6.98,0,1,0,0,9.871A6.98,6.98,0,0,0,818.009,268.662Zm16.09,16.092a6.978,6.978,0,1,0,0,9.869A6.977,6.977,0,0,0,834.1,284.754Zm16.09,16.09a6.978,6.978,0,1,0,0,9.869A6.977,6.977,0,0,0,850.19,300.844Zm16.09,16.09a6.978,6.978,0,1,0,0,9.869A6.977,6.977,0,0,0,866.28,316.935Zm16.092,16.09a6.98,6.98,0,1,0,0,9.871A6.98,6.98,0,0,0,882.372,333.025Zm16.09,16.092a6.978,6.978,0,1,0,0,9.869A6.977,6.977,0,0,0,898.463,349.118ZM787.114,267.374a6.979,6.979,0,1,0,0,9.871A6.978,6.978,0,0,0,787.114,267.374Zm16.09,16.092a6.978,6.978,0,1,0,0,9.869A6.978,6.978,0,0,0,803.2,283.467Zm16.092,16.09a6.979,6.979,0,1,0,0,9.869A6.98,6.98,0,0,0,819.3,299.557Zm16.09,16.09a6.978,6.978,0,1,0,0,9.869A6.978,6.978,0,0,0,835.387,315.647Zm16.09,16.09a6.979,6.979,0,1,0,0,9.871A6.981,6.981,0,0,0,851.477,331.738Zm16.09,16.092a6.978,6.978,0,1,0,0,9.869A6.977,6.977,0,0,0,867.568,347.83Zm16.092,16.09a6.979,6.979,0,1,0,0,9.869A6.98,6.98,0,0,0,883.66,363.92ZM788.4,298.27a6.978,6.978,0,1,0,0,9.869A6.977,6.977,0,0,0,788.4,298.27Zm16.09,16.09a6.979,6.979,0,1,0,0,9.871A6.978,6.978,0,0,0,804.492,314.36Zm16.09,16.09a6.979,6.979,0,1,0,0,9.871A6.981,6.981,0,0,0,820.582,330.45Zm16.092,16.092a6.979,6.979,0,1,0,0,9.869A6.98,6.98,0,0,0,836.674,346.543Zm16.09,16.09a6.978,6.978,0,1,0,0,9.869A6.977,6.977,0,0,0,852.765,362.633Zm16.09,16.09a6.979,6.979,0,1,0,0,9.871A6.977,6.977,0,0,0,868.855,378.723ZM773.6,313.072a6.979,6.979,0,1,0,0,9.871A6.981,6.981,0,0,0,773.6,313.072Zm16.092,16.092a6.978,6.978,0,1,0,0,9.869A6.978,6.978,0,0,0,789.689,329.165Zm16.09,16.09a6.978,6.978,0,1,0,0,9.869A6.978,6.978,0,0,0,805.779,345.255Zm16.09,16.09a6.978,6.978,0,1,0,0,9.869A6.977,6.977,0,0,0,821.869,361.345Zm-63.076-33.468a6.978,6.978,0,1,0,0,9.869A6.978,6.978,0,0,0,758.794,327.877Zm16.09,16.09a6.978,6.978,0,1,0,0,9.869A6.978,6.978,0,0,0,774.884,343.968Zm16.092,16.09a6.98,6.98,0,1,0,0,9.871A6.98,6.98,0,0,0,790.976,360.058Zm16.09,16.092a6.978,6.978,0,1,0,0,9.869A6.978,6.978,0,0,0,807.067,376.15Zm-63.076-33.47a6.979,6.979,0,1,0,0,9.869A6.98,6.98,0,0,0,743.991,342.68Zm16.09,16.09a6.979,6.979,0,1,0,0,9.871A6.981,6.981,0,0,0,760.081,358.77Zm16.09,16.092a6.978,6.978,0,1,0,0,9.869A6.978,6.978,0,0,0,776.171,374.863Zm16.092,16.09a6.979,6.979,0,1,0,0,9.869A6.98,6.98,0,0,0,792.264,390.953Zm-46.986-17.378a6.979,6.979,0,1,0,0,9.869A6.98,6.98,0,0,0,745.278,373.575Zm32.181,32.181a6.979,6.979,0,1,0,0,9.871A6.978,6.978,0,0,0,777.459,405.756Zm-46.986-17.378a6.978,6.978,0,1,0,0,9.869A6.978,6.978,0,0,0,730.473,388.378Zm32.183,32.183a6.978,6.978,0,1,0,0,9.869A6.977,6.977,0,0,0,762.656,420.561Zm-46.986-17.38a6.979,6.979,0,1,0,0,9.871A6.981,6.981,0,0,0,715.67,403.181Zm-14.8,14.8a6.979,6.979,0,1,0,0,9.869A6.98,6.98,0,0,0,700.867,417.986Zm-14.8,14.8a6.979,6.979,0,1,0,0,9.871A6.977,6.977,0,0,0,686.063,432.789Zm-14.8,14.8a6.978,6.978,0,1,0,0,9.869A6.978,6.978,0,0,0,671.26,447.594Z" transform="translate(832.79 413.534)" opacity="0.3" fill="url(#linear-gradient-12)" style="mix-blend-mode: screen;isolation: isolate"/>
        <path id="Path_6952" data-name="Path 6952" d="M-37.781,643.6a5.97,5.97,0,0,1,0,8.439,5.966,5.966,0,0,1-8.439,0,5.966,5.966,0,0,1,0-8.439A5.966,5.966,0,0,1-37.781,643.6Zm15.189-23.628a5.966,5.966,0,0,0,0,8.439,5.966,5.966,0,0,0,8.439,0,5.97,5.97,0,0,0,0-8.439A5.97,5.97,0,0,0-22.591,619.973ZM1.037,596.345a5.967,5.967,0,1,0,8.439,0A5.966,5.966,0,0,0,1.037,596.345Zm23.628-23.628a5.967,5.967,0,1,0,8.439,0A5.966,5.966,0,0,0,24.665,572.717Zm23.628-23.628a5.966,5.966,0,1,0,8.437,0A5.966,5.966,0,0,0,48.293,549.089Zm23.626-23.628a5.967,5.967,0,1,0,8.439,0A5.97,5.97,0,0,0,71.919,525.461Zm23.628-23.626a5.966,5.966,0,1,0,8.439,0A5.967,5.967,0,0,0,95.547,501.835Zm23.628-23.628a5.967,5.967,0,1,0,8.439,0A5.97,5.97,0,0,0,119.175,478.207ZM142.8,454.579a5.967,5.967,0,1,0,8.439,0A5.97,5.97,0,0,0,142.8,454.579Zm23.628-23.628a5.967,5.967,0,1,0,8.439,0A5.966,5.966,0,0,0,166.431,430.951Zm23.628-23.628a5.967,5.967,0,1,0,8.439,0A5.966,5.966,0,0,0,190.059,407.323Zm23.628-23.628a5.967,5.967,0,1,0,8.439,0A5.966,5.966,0,0,0,213.687,383.695Zm23.628-23.628a5.967,5.967,0,1,0,8.439,0A5.966,5.966,0,0,0,237.315,360.067Zm23.628-23.628a5.967,5.967,0,1,0,8.439,0A5.966,5.966,0,0,0,260.943,336.439Zm23.628-23.628a5.967,5.967,0,1,0,8.439,0A5.966,5.966,0,0,0,284.571,312.811ZM-23.435,666.385a5.966,5.966,0,0,0,0,8.439,5.966,5.966,0,0,0,8.439,0,5.966,5.966,0,0,0,0-8.439A5.966,5.966,0,0,0-23.435,666.385ZM.193,642.757a5.967,5.967,0,1,0,8.439,0A5.966,5.966,0,0,0,.193,642.757Zm23.628-23.628a5.967,5.967,0,1,0,8.439,0A5.966,5.966,0,0,0,23.821,619.129ZM47.449,595.5a5.967,5.967,0,1,0,8.439,0A5.966,5.966,0,0,0,47.449,595.5Zm23.628-23.628a5.966,5.966,0,1,0,8.437,0A5.966,5.966,0,0,0,71.077,571.873ZM94.7,548.245a5.967,5.967,0,1,0,8.439,0A5.97,5.97,0,0,0,94.7,548.245Zm23.628-23.628a5.967,5.967,0,1,0,8.439,0A5.97,5.97,0,0,0,118.331,524.617Zm23.628-23.626a5.967,5.967,0,1,0,8.439,0A5.97,5.97,0,0,0,141.959,500.991Zm23.628-23.628a5.967,5.967,0,1,0,8.439,0A5.97,5.97,0,0,0,165.587,477.363Zm23.628-23.628a5.967,5.967,0,1,0,8.439,0A5.97,5.97,0,0,0,189.215,453.735Zm23.628-23.628a5.967,5.967,0,1,0,8.439,0A5.97,5.97,0,0,0,212.843,430.107Zm23.628-23.628a5.967,5.967,0,1,0,8.439,0A5.966,5.966,0,0,0,236.471,406.479ZM260.1,382.851a5.967,5.967,0,1,0,8.439,0A5.966,5.966,0,0,0,260.1,382.851Zm23.628-23.628a5.967,5.967,0,1,0,8.439,0A5.966,5.966,0,0,0,283.727,359.223Zm23.628-23.628a5.967,5.967,0,1,0,8.439,0A5.966,5.966,0,0,0,307.355,335.595ZM-.651,689.169a5.967,5.967,0,1,0,8.439,0A5.966,5.966,0,0,0-.651,689.169Zm23.628-23.628a5.967,5.967,0,1,0,8.439,0A5.966,5.966,0,0,0,22.977,665.541ZM46.6,641.913a5.967,5.967,0,1,0,8.439,0A5.966,5.966,0,0,0,46.6,641.913Zm23.628-23.628a5.967,5.967,0,1,0,8.439,0A5.966,5.966,0,0,0,70.233,618.285Zm23.628-23.628a5.967,5.967,0,1,0,8.439,0A5.966,5.966,0,0,0,93.861,594.657Zm23.628-23.626a5.966,5.966,0,1,0,8.437,0A5.964,5.964,0,0,0,117.489,571.031ZM141.115,547.4a5.966,5.966,0,1,0,8.439,0A5.967,5.967,0,0,0,141.115,547.4Zm23.628-23.628a5.966,5.966,0,1,0,8.439,0A5.967,5.967,0,0,0,164.743,523.775Zm23.628-23.628a5.967,5.967,0,1,0,8.439,0A5.97,5.97,0,0,0,188.371,500.147ZM212,476.519a5.967,5.967,0,1,0,8.439,0A5.97,5.97,0,0,0,212,476.519Zm23.628-23.628a5.967,5.967,0,1,0,8.439,0A5.966,5.966,0,0,0,235.627,452.891Zm23.628-23.628a5.967,5.967,0,1,0,8.439,0A5.966,5.966,0,0,0,259.255,429.263Zm23.628-23.628a5.967,5.967,0,1,0,8.439,0A5.966,5.966,0,0,0,282.883,405.635Zm23.628-23.628a5.967,5.967,0,1,0,8.439,0A5.966,5.966,0,0,0,306.511,382.007Zm23.628-23.628a5.967,5.967,0,1,0,8.439,0A5.966,5.966,0,0,0,330.139,358.379ZM22.133,711.953a5.967,5.967,0,1,0,8.439,0A5.966,5.966,0,0,0,22.133,711.953Zm23.628-23.628a5.967,5.967,0,1,0,8.439,0A5.966,5.966,0,0,0,45.761,688.325ZM69.389,664.7a5.967,5.967,0,1,0,8.439,0A5.966,5.966,0,0,0,69.389,664.7Zm23.628-23.628a5.967,5.967,0,1,0,8.439,0A5.966,5.966,0,0,0,93.017,641.069Zm23.628-23.626a5.966,5.966,0,1,0,8.439,0A5.964,5.964,0,0,0,116.645,617.443Zm23.628-23.628a5.966,5.966,0,1,0,8.437,0A5.964,5.964,0,0,0,140.273,593.815ZM163.9,570.187a5.967,5.967,0,1,0,8.439,0A5.966,5.966,0,0,0,163.9,570.187Zm23.626-23.628a5.967,5.967,0,1,0,8.439,0A5.97,5.97,0,0,0,187.527,546.559Zm23.628-23.628a5.967,5.967,0,1,0,8.439,0A5.97,5.97,0,0,0,211.155,522.931ZM234.783,499.3a5.967,5.967,0,1,0,8.439,0A5.97,5.97,0,0,0,234.783,499.3Zm23.628-23.628a5.967,5.967,0,1,0,8.439,0A5.97,5.97,0,0,0,258.411,475.675Zm23.628-23.628a5.967,5.967,0,1,0,8.439,0A5.97,5.97,0,0,0,282.039,452.047Zm23.628-23.628a5.967,5.967,0,1,0,8.439,0A5.966,5.966,0,0,0,305.667,428.419ZM329.3,404.791a5.967,5.967,0,1,0,8.439,0A5.966,5.966,0,0,0,329.3,404.791Zm23.628-23.628a5.967,5.967,0,1,0,8.439,0A5.966,5.966,0,0,0,352.923,381.163ZM44.917,734.737a5.967,5.967,0,1,0,8.439,0A5.966,5.966,0,0,0,44.917,734.737Zm23.628-23.628a5.967,5.967,0,1,0,8.439,0A5.966,5.966,0,0,0,68.545,711.109Zm23.628-23.628a5.967,5.967,0,1,0,8.439,0A5.966,5.966,0,0,0,92.173,687.481ZM115.8,663.853a5.967,5.967,0,1,0,8.439,0A5.966,5.966,0,0,0,115.8,663.853Zm23.628-23.628a5.967,5.967,0,1,0,8.439,0A5.966,5.966,0,0,0,139.429,640.225ZM163.057,616.6a5.967,5.967,0,1,0,8.439,0A5.966,5.966,0,0,0,163.057,616.6Zm23.628-23.628a5.966,5.966,0,1,0,8.437,0A5.966,5.966,0,0,0,186.685,592.971Zm23.628-23.628a5.966,5.966,0,1,0,8.437,0A5.966,5.966,0,0,0,210.313,569.343Zm23.626-23.628a5.967,5.967,0,1,0,8.439,0A5.97,5.97,0,0,0,233.939,545.715Zm23.628-23.628a5.967,5.967,0,1,0,8.439,0A5.97,5.97,0,0,0,257.567,522.087ZM281.2,498.459a5.967,5.967,0,1,0,8.439,0A5.97,5.97,0,0,0,281.2,498.459Zm23.628-23.628a5.967,5.967,0,1,0,8.439,0A5.97,5.97,0,0,0,304.823,474.831ZM328.451,451.2a5.967,5.967,0,1,0,8.439,0A5.966,5.966,0,0,0,328.451,451.2Zm23.628-23.628a5.967,5.967,0,1,0,8.439,0A5.966,5.966,0,0,0,352.079,427.575Zm23.628-23.628a5.967,5.967,0,1,0,8.439,0A5.966,5.966,0,0,0,375.707,403.947ZM67.7,757.521a5.967,5.967,0,1,0,8.439,0A5.966,5.966,0,0,0,67.7,757.521Zm23.628-23.628a5.967,5.967,0,1,0,8.439,0A5.966,5.966,0,0,0,91.329,733.893Zm23.628-23.628a5.967,5.967,0,1,0,8.439,0A5.966,5.966,0,0,0,114.957,710.265Zm23.628-23.626a5.966,5.966,0,1,0,8.439,0A5.964,5.964,0,0,0,138.585,686.639Zm23.628-23.628a5.967,5.967,0,1,0,8.439,0A5.966,5.966,0,0,0,162.213,663.011Zm23.628-23.628a5.966,5.966,0,1,0,8.439,0A5.964,5.964,0,0,0,185.841,639.383Zm23.628-23.628a5.967,5.967,0,1,0,8.439,0A5.966,5.966,0,0,0,209.469,615.755ZM233.1,592.127a5.966,5.966,0,1,0,8.437,0A5.966,5.966,0,0,0,233.1,592.127ZM256.723,568.5a5.967,5.967,0,1,0,8.439,0A5.97,5.97,0,0,0,256.723,568.5Zm23.628-23.628a5.967,5.967,0,1,0,8.439,0A5.97,5.97,0,0,0,280.351,544.871Zm23.628-23.628a5.967,5.967,0,1,0,8.439,0A5.97,5.97,0,0,0,303.979,521.243Zm23.628-23.628a5.967,5.967,0,1,0,8.439,0A5.97,5.97,0,0,0,327.607,497.615Zm23.628-23.628a5.967,5.967,0,1,0,8.439,0A5.966,5.966,0,0,0,351.235,473.987Zm23.628-23.628a5.967,5.967,0,1,0,8.439,0A5.966,5.966,0,0,0,374.863,450.359Zm23.628-23.628a5.967,5.967,0,1,0,8.439,0A5.966,5.966,0,0,0,398.491,426.731ZM90.485,780.305a5.967,5.967,0,1,0,8.439,0A5.966,5.966,0,0,0,90.485,780.305Zm23.628-23.628a5.967,5.967,0,1,0,8.439,0A5.966,5.966,0,0,0,114.113,756.677Zm23.628-23.626a5.966,5.966,0,1,0,8.439,0A5.963,5.963,0,0,0,137.741,733.051Zm23.628-23.628a5.966,5.966,0,1,0,8.439,0A5.964,5.964,0,0,0,161.369,709.423ZM185,685.8a5.966,5.966,0,1,0,8.439,0A5.964,5.964,0,0,0,185,685.8Zm23.628-23.628a5.967,5.967,0,1,0,8.439,0A5.966,5.966,0,0,0,208.625,662.167Zm23.628-23.628a5.967,5.967,0,1,0,8.439,0A5.966,5.966,0,0,0,232.253,638.539Zm23.628-23.628a5.967,5.967,0,1,0,8.439,0A5.966,5.966,0,0,0,255.881,614.911Zm23.626-23.628a5.967,5.967,0,1,0,8.439,0A5.97,5.97,0,0,0,279.507,591.283Zm23.63-23.628a5.966,5.966,0,1,0,8.437,0A5.966,5.966,0,0,0,303.137,567.655Zm23.626-23.628a5.967,5.967,0,1,0,8.439,0A5.97,5.97,0,0,0,326.763,544.027ZM350.391,520.4a5.967,5.967,0,1,0,8.439,0A5.97,5.97,0,0,0,350.391,520.4Zm23.628-23.628a5.967,5.967,0,1,0,8.439,0A5.97,5.97,0,0,0,374.019,496.771Zm23.628-23.628a5.967,5.967,0,1,0,8.439,0A5.966,5.966,0,0,0,397.647,473.143Zm23.628-23.628a5.967,5.967,0,1,0,8.439,0A5.966,5.966,0,0,0,421.275,449.515ZM113.268,803.089a5.967,5.967,0,1,0,8.439,0A5.966,5.966,0,0,0,113.268,803.089ZM136.9,779.461a5.967,5.967,0,1,0,8.439,0A5.966,5.966,0,0,0,136.9,779.461Zm23.628-23.628a5.967,5.967,0,1,0,8.439,0A5.966,5.966,0,0,0,160.525,755.833Zm23.628-23.626a5.967,5.967,0,1,0,8.439,0A5.966,5.966,0,0,0,184.153,732.207Zm23.628-23.628a5.967,5.967,0,1,0,8.439,0A5.966,5.966,0,0,0,207.781,708.579Zm23.628-23.628a5.967,5.967,0,1,0,8.439,0A5.966,5.966,0,0,0,231.409,684.951Zm23.628-23.628a5.967,5.967,0,1,0,8.439,0A5.966,5.966,0,0,0,255.037,661.323Zm23.628-23.628a5.966,5.966,0,1,0,8.437,0A5.966,5.966,0,0,0,278.665,637.695Zm23.628-23.628a5.966,5.966,0,1,0,8.437,0A5.966,5.966,0,0,0,302.293,614.067Zm23.626-23.628a5.967,5.967,0,1,0,8.439,0A5.97,5.97,0,0,0,325.919,590.439Zm23.628-23.628a5.967,5.967,0,1,0,8.439,0A5.97,5.97,0,0,0,349.547,566.811Zm23.628-23.628a5.967,5.967,0,1,0,8.439,0A5.97,5.97,0,0,0,373.175,543.183ZM396.8,519.555a5.967,5.967,0,1,0,8.439,0A5.97,5.97,0,0,0,396.8,519.555Zm23.628-23.628a5.967,5.967,0,1,0,8.439,0A5.966,5.966,0,0,0,420.431,495.927ZM444.059,472.3a5.967,5.967,0,1,0,8.439,0A5.966,5.966,0,0,0,444.059,472.3ZM136.052,825.873a5.967,5.967,0,1,0,8.439,0A5.966,5.966,0,0,0,136.052,825.873Zm23.628-23.626a5.966,5.966,0,1,0,8.439,0A5.964,5.964,0,0,0,159.681,802.247Zm23.628-23.628a5.966,5.966,0,1,0,8.439,0A5.964,5.964,0,0,0,183.309,778.619Zm23.628-23.628a5.967,5.967,0,1,0,8.439,0A5.966,5.966,0,0,0,206.937,754.991Zm23.628-23.628a5.967,5.967,0,1,0,8.439,0A5.966,5.966,0,0,0,230.565,731.363Zm23.628-23.628a5.967,5.967,0,1,0,8.439,0A5.966,5.966,0,0,0,254.193,707.735Zm23.628-23.628a5.967,5.967,0,1,0,8.439,0A5.966,5.966,0,0,0,277.821,684.107Zm23.628-23.628a5.967,5.967,0,1,0,8.439,0A5.966,5.966,0,0,0,301.449,660.479Zm23.628-23.628a5.966,5.966,0,1,0,8.437,0A5.966,5.966,0,0,0,325.077,636.851ZM348.7,613.223a5.967,5.967,0,1,0,8.439,0A5.97,5.97,0,0,0,348.7,613.223Zm23.628-23.628a5.967,5.967,0,1,0,8.439,0A5.97,5.97,0,0,0,372.331,589.595Zm23.628-23.628a5.967,5.967,0,1,0,8.439,0A5.97,5.97,0,0,0,395.959,565.967Zm23.628-23.628a5.967,5.967,0,1,0,8.439,0A5.97,5.97,0,0,0,419.587,542.339Zm23.628-23.628a5.967,5.967,0,1,0,8.439,0A5.97,5.97,0,0,0,443.215,518.711Zm23.628-23.628a5.967,5.967,0,1,0,8.439,0A5.966,5.966,0,0,0,466.843,495.082ZM158.836,848.657a5.967,5.967,0,1,0,8.439,0A5.966,5.966,0,0,0,158.836,848.657Zm23.628-23.626a5.966,5.966,0,1,0,8.439,0A5.964,5.964,0,0,0,182.464,825.031ZM206.093,801.4a5.966,5.966,0,1,0,8.439,0A5.964,5.964,0,0,0,206.093,801.4Zm23.628-23.628a5.967,5.967,0,1,0,8.439,0A5.966,5.966,0,0,0,229.721,777.775Zm23.628-23.628a5.967,5.967,0,1,0,8.439,0A5.966,5.966,0,0,0,253.349,754.147Zm23.628-23.628a5.967,5.967,0,1,0,8.439,0A5.966,5.966,0,0,0,276.977,730.519ZM300.6,706.891a5.967,5.967,0,1,0,8.439,0A5.966,5.966,0,0,0,300.6,706.891Zm23.628-23.628a5.967,5.967,0,1,0,8.439,0A5.966,5.966,0,0,0,324.233,683.263Zm23.628-23.628a5.967,5.967,0,1,0,8.439,0A5.966,5.966,0,0,0,347.861,659.635Zm23.628-23.628a5.966,5.966,0,1,0,8.437,0A5.966,5.966,0,0,0,371.489,636.007Zm23.628-23.628a5.966,5.966,0,1,0,8.437,0A5.966,5.966,0,0,0,395.117,612.379Zm23.626-23.628a5.967,5.967,0,1,0,8.439,0A5.97,5.97,0,0,0,418.743,588.751Zm23.628-23.628a5.967,5.967,0,1,0,8.439,0A5.97,5.97,0,0,0,442.371,565.123ZM466,541.495a5.967,5.967,0,1,0,8.439,0A5.97,5.97,0,0,0,466,541.495Zm23.628-23.628a5.967,5.967,0,1,0,8.439,0A5.966,5.966,0,0,0,489.627,517.866Z" transform="translate(101.484 537.346)" opacity="0.3" fill="url(#linear-gradient-14)" style="mix-blend-mode: screen;isolation: isolate"/>
        <path id="Path_6953" data-name="Path 6953" d="M-62.968,209.9a5.556,5.556,0,0,1,0,7.855,5.556,5.556,0,0,1-7.855,0,5.556,5.556,0,0,1,0-7.855A5.556,5.556,0,0,1-62.968,209.9Zm14.136-21.989a5.55,5.55,0,0,0,0,7.853,5.554,5.554,0,0,0,7.853,0,5.554,5.554,0,0,0,0-7.853A5.554,5.554,0,0,0-48.833,187.908Zm21.989-21.989a5.554,5.554,0,0,0,0,7.853,5.554,5.554,0,0,0,7.853,0,5.55,5.55,0,0,0,0-7.853A5.55,5.55,0,0,0-26.844,165.919Zm21.991-21.991a5.55,5.55,0,0,0,0,7.853,5.55,5.55,0,0,0,7.853,0,5.554,5.554,0,0,0,0-7.853A5.554,5.554,0,0,0-4.853,143.929ZM17.136,121.94a5.553,5.553,0,1,0,7.853,0A5.554,5.554,0,0,0,17.136,121.94ZM39.124,99.949a5.554,5.554,0,1,0,7.855,0A5.554,5.554,0,0,0,39.124,99.949ZM61.115,77.96a5.553,5.553,0,1,0,7.853,0A5.554,5.554,0,0,0,61.115,77.96ZM83.1,55.97a5.554,5.554,0,1,0,7.855,0A5.556,5.556,0,0,0,83.1,55.97Zm21.991-21.989a5.553,5.553,0,1,0,7.853,0A5.55,5.55,0,0,0,105.094,33.981Zm21.989-21.989a5.553,5.553,0,1,0,7.853,0A5.554,5.554,0,0,0,127.083,11.992ZM149.074-10a5.55,5.55,0,0,0,0,7.853,5.55,5.55,0,0,0,7.853,0,5.554,5.554,0,0,0,0-7.853A5.554,5.554,0,0,0,149.074-10Zm21.989-21.989a5.554,5.554,0,0,0,0,7.853,5.554,5.554,0,0,0,7.853,0,5.554,5.554,0,0,0,0-7.853A5.55,5.55,0,0,0,171.063-31.987Zm21.989-21.991a5.554,5.554,0,0,0,0,7.853,5.552,5.552,0,0,0,7.855,0,5.554,5.554,0,0,0,0-7.853A5.556,5.556,0,0,0,193.051-53.978Zm21.991-21.989a5.554,5.554,0,0,0,0,7.853,5.554,5.554,0,0,0,7.853,0,5.554,5.554,0,0,0,0-7.853A5.554,5.554,0,0,0,215.042-75.967Zm21.989-21.991a5.556,5.556,0,0,0,0,7.855,5.556,5.556,0,0,0,7.855,0,5.556,5.556,0,0,0,0-7.855A5.556,5.556,0,0,0,237.031-97.957ZM-49.618,231.1a5.55,5.55,0,0,0,0,7.853,5.554,5.554,0,0,0,7.853,0,5.554,5.554,0,0,0,0-7.853A5.55,5.55,0,0,0-49.618,231.1Zm21.989-21.991a5.554,5.554,0,0,0,0,7.853,5.55,5.55,0,0,0,7.853,0,5.554,5.554,0,0,0,0-7.853A5.554,5.554,0,0,0-27.629,209.112ZM-5.64,187.123a5.554,5.554,0,0,0,0,7.853,5.556,5.556,0,0,0,7.855,0,5.554,5.554,0,0,0,0-7.853A5.556,5.556,0,0,0-5.64,187.123ZM16.35,165.132a5.554,5.554,0,1,0,7.853,0A5.556,5.556,0,0,0,16.35,165.132Zm21.989-21.989a5.554,5.554,0,1,0,7.855,0A5.554,5.554,0,0,0,38.339,143.144ZM60.33,121.155a5.553,5.553,0,1,0,7.853,0A5.55,5.55,0,0,0,60.33,121.155ZM82.319,99.164a5.553,5.553,0,1,0,7.853,0A5.554,5.554,0,0,0,82.319,99.164Zm21.991-21.989a5.553,5.553,0,1,0,7.853,0A5.55,5.55,0,0,0,104.309,77.175ZM126.3,55.185a5.553,5.553,0,1,0,7.853,0A5.554,5.554,0,0,0,126.3,55.185ZM148.287,33.2a5.554,5.554,0,1,0,7.855,0A5.554,5.554,0,0,0,148.287,33.2Zm21.991-21.991a5.554,5.554,0,1,0,7.853,0A5.556,5.556,0,0,0,170.278,11.205Zm21.989-21.989a5.554,5.554,0,0,0,0,7.853,5.556,5.556,0,0,0,7.855,0,5.554,5.554,0,0,0,0-7.853A5.556,5.556,0,0,0,192.266-10.784Zm21.991-21.989a5.554,5.554,0,0,0,0,7.853,5.554,5.554,0,0,0,7.853,0,5.554,5.554,0,0,0,0-7.853A5.55,5.55,0,0,0,214.257-32.772Zm21.989-21.991a5.554,5.554,0,0,0,0,7.853,5.55,5.55,0,0,0,7.853,0,5.55,5.55,0,0,0,0-7.853A5.554,5.554,0,0,0,236.246-54.763Zm21.991-21.989a5.55,5.55,0,0,0,0,7.853,5.554,5.554,0,0,0,7.853,0,5.554,5.554,0,0,0,0-7.853A5.55,5.55,0,0,0,258.236-76.752ZM-28.414,252.306a5.554,5.554,0,0,0,0,7.853,5.554,5.554,0,0,0,7.853,0,5.554,5.554,0,0,0,0-7.853A5.554,5.554,0,0,0-28.414,252.306Zm21.989-21.991a5.556,5.556,0,0,0,0,7.855,5.556,5.556,0,0,0,7.855,0,5.556,5.556,0,0,0,0-7.855A5.556,5.556,0,0,0-6.425,230.315Zm21.991-21.989a5.553,5.553,0,1,0,7.853,0A5.554,5.554,0,0,0,15.565,208.327Zm21.989-21.989a5.553,5.553,0,1,0,7.853,0A5.554,5.554,0,0,0,37.554,186.338Zm21.991-21.991a5.554,5.554,0,1,0,7.853,0A5.552,5.552,0,0,0,59.545,164.347Zm21.989-21.989a5.553,5.553,0,1,0,7.853,0A5.554,5.554,0,0,0,81.534,142.358Zm21.989-21.991a5.554,5.554,0,1,0,7.855,0A5.556,5.556,0,0,0,103.522,120.368Zm21.991-21.989a5.553,5.553,0,1,0,7.853,0A5.554,5.554,0,0,0,125.513,98.379ZM147.5,76.39a5.554,5.554,0,1,0,7.855,0A5.554,5.554,0,0,0,147.5,76.39ZM169.492,54.4a5.553,5.553,0,1,0,7.853,0A5.554,5.554,0,0,0,169.492,54.4Zm21.989-21.989a5.553,5.553,0,1,0,7.853,0A5.554,5.554,0,0,0,191.481,32.411ZM213.472,10.42a5.554,5.554,0,1,0,7.853,0A5.552,5.552,0,0,0,213.472,10.42Zm21.989-21.989a5.554,5.554,0,0,0,0,7.853,5.554,5.554,0,0,0,7.853,0,5.55,5.55,0,0,0,0-7.853A5.554,5.554,0,0,0,235.461-11.569Zm21.989-21.991a5.556,5.556,0,0,0,0,7.855,5.556,5.556,0,0,0,7.855,0,5.556,5.556,0,0,0,0-7.855A5.556,5.556,0,0,0,257.449-33.559ZM279.44-55.548a5.554,5.554,0,0,0,0,7.853,5.554,5.554,0,0,0,7.853,0,5.554,5.554,0,0,0,0-7.853A5.554,5.554,0,0,0,279.44-55.548ZM-7.21,273.51a5.554,5.554,0,0,0,0,7.853,5.55,5.55,0,0,0,7.853,0,5.55,5.55,0,0,0,0-7.853A5.554,5.554,0,0,0-7.21,273.51ZM14.78,251.521a5.553,5.553,0,1,0,7.853,0A5.55,5.55,0,0,0,14.78,251.521ZM36.769,229.53a5.554,5.554,0,1,0,7.853,0A5.556,5.556,0,0,0,36.769,229.53Zm21.989-21.989a5.554,5.554,0,1,0,7.855,0A5.554,5.554,0,0,0,58.758,207.542Zm21.991-21.991a5.554,5.554,0,1,0,7.853,0A5.556,5.556,0,0,0,80.748,185.551Zm21.989-21.989a5.554,5.554,0,1,0,7.855,0A5.554,5.554,0,0,0,102.737,163.562Zm21.991-21.989a5.553,5.553,0,1,0,7.853,0A5.554,5.554,0,0,0,124.728,141.573Zm21.989-21.991a5.554,5.554,0,1,0,7.853,0A5.556,5.556,0,0,0,146.717,119.583Zm21.991-21.989a5.553,5.553,0,1,0,7.853,0A5.55,5.55,0,0,0,168.707,97.594ZM190.7,75.6a5.554,5.554,0,1,0,7.853,0A5.556,5.556,0,0,0,190.7,75.6Zm21.991-21.989a5.553,5.553,0,1,0,7.853,0A5.55,5.55,0,0,0,212.687,53.614Zm21.989-21.989a5.553,5.553,0,1,0,7.853,0A5.554,5.554,0,0,0,234.676,31.626ZM256.664,9.635a5.554,5.554,0,1,0,7.855,0A5.554,5.554,0,0,0,256.664,9.635Zm21.991-21.989a5.554,5.554,0,0,0,0,7.853,5.554,5.554,0,0,0,7.853,0,5.554,5.554,0,0,0,0-7.853A5.55,5.55,0,0,0,278.655-12.354Zm21.989-21.991a5.556,5.556,0,0,0,0,7.855,5.554,5.554,0,0,0,7.853,0,5.552,5.552,0,0,0,0-7.855A5.554,5.554,0,0,0,300.644-34.345ZM14,294.715a5.553,5.553,0,1,0,7.853,0A5.55,5.55,0,0,0,14,294.715Zm21.989-21.991a5.553,5.553,0,1,0,7.853,0A5.554,5.554,0,0,0,35.984,272.725Zm21.989-21.989a5.554,5.554,0,1,0,7.855,0A5.554,5.554,0,0,0,57.973,250.736Zm21.991-21.991a5.554,5.554,0,1,0,7.853,0A5.556,5.556,0,0,0,79.963,228.745Zm21.989-21.989a5.553,5.553,0,1,0,7.853,0A5.554,5.554,0,0,0,101.952,206.756Zm21.991-21.991a5.554,5.554,0,1,0,7.853,0A5.552,5.552,0,0,0,123.943,184.766Zm21.989-21.989a5.553,5.553,0,1,0,7.853,0A5.554,5.554,0,0,0,145.931,162.777Zm21.991-21.989a5.553,5.553,0,1,0,7.853,0A5.55,5.55,0,0,0,167.922,140.788ZM189.911,118.8a5.553,5.553,0,1,0,7.853,0A5.554,5.554,0,0,0,189.911,118.8ZM211.9,96.809a5.554,5.554,0,1,0,7.855,0A5.554,5.554,0,0,0,211.9,96.809ZM233.89,74.818a5.554,5.554,0,1,0,7.853,0A5.556,5.556,0,0,0,233.89,74.818Zm21.989-21.989a5.553,5.553,0,1,0,7.853,0A5.554,5.554,0,0,0,255.879,52.829ZM277.87,30.839a5.554,5.554,0,1,0,7.853,0A5.552,5.552,0,0,0,277.87,30.839ZM299.859,8.85a5.553,5.553,0,1,0,7.853,0A5.554,5.554,0,0,0,299.859,8.85Zm21.989-21.989a5.554,5.554,0,0,0,0,7.853,5.556,5.556,0,0,0,7.855,0,5.554,5.554,0,0,0,0-7.853A5.552,5.552,0,0,0,321.847-13.139ZM35.2,315.919a5.553,5.553,0,1,0,7.853,0A5.554,5.554,0,0,0,35.2,315.919Zm21.989-21.991a5.554,5.554,0,1,0,7.853,0A5.556,5.556,0,0,0,57.187,293.928Zm21.991-21.989a5.553,5.553,0,1,0,7.853,0A5.55,5.55,0,0,0,79.178,271.939Zm21.989-21.989a5.553,5.553,0,1,0,7.853,0A5.554,5.554,0,0,0,101.167,249.951Zm21.991-21.991a5.553,5.553,0,1,0,7.853,0A5.55,5.55,0,0,0,123.158,227.96Zm21.989-21.989a5.553,5.553,0,1,0,7.853,0A5.554,5.554,0,0,0,145.146,205.971Zm21.989-21.991a5.554,5.554,0,1,0,7.855,0A5.556,5.556,0,0,0,167.135,183.981Zm21.991-21.989a5.553,5.553,0,1,0,7.853,0A5.554,5.554,0,0,0,189.126,161.992ZM211.115,140a5.554,5.554,0,1,0,7.855,0A5.556,5.556,0,0,0,211.115,140Zm21.991-21.989a5.553,5.553,0,1,0,7.853,0A5.55,5.55,0,0,0,233.105,118.012Zm21.989-21.989a5.553,5.553,0,1,0,7.853,0A5.554,5.554,0,0,0,255.094,96.024Zm21.991-21.991a5.553,5.553,0,1,0,7.853,0A5.55,5.55,0,0,0,277.085,74.033Zm21.989-21.989a5.553,5.553,0,1,0,7.853,0A5.554,5.554,0,0,0,299.073,52.044Zm21.989-21.991a5.554,5.554,0,1,0,7.855,0A5.556,5.556,0,0,0,321.062,30.053ZM343.053,8.065a5.553,5.553,0,1,0,7.853,0A5.554,5.554,0,0,0,343.053,8.065ZM56.4,337.123a5.553,5.553,0,1,0,7.853,0A5.554,5.554,0,0,0,56.4,337.123Zm21.991-21.989a5.553,5.553,0,1,0,7.853,0A5.55,5.55,0,0,0,78.393,315.134Zm21.989-21.991a5.554,5.554,0,1,0,7.853,0A5.556,5.556,0,0,0,100.382,293.143Zm21.989-21.989a5.554,5.554,0,1,0,7.855,0A5.554,5.554,0,0,0,122.371,271.154Zm21.991-21.989a5.553,5.553,0,1,0,7.853,0A5.554,5.554,0,0,0,144.361,249.166Zm21.989-21.991a5.553,5.553,0,1,0,7.853,0A5.554,5.554,0,0,0,166.35,227.175Zm21.991-21.989a5.553,5.553,0,1,0,7.853,0A5.55,5.55,0,0,0,188.341,205.186ZM210.329,183.2a5.553,5.553,0,1,0,7.853,0A5.554,5.554,0,0,0,210.329,183.2Zm21.991-21.989a5.553,5.553,0,1,0,7.853,0A5.55,5.55,0,0,0,232.32,161.207Zm21.989-21.991a5.554,5.554,0,1,0,7.853,0A5.556,5.556,0,0,0,254.309,139.216ZM276.3,117.227a5.554,5.554,0,1,0,7.855,0A5.554,5.554,0,0,0,276.3,117.227Zm21.991-21.989a5.553,5.553,0,1,0,7.853,0A5.554,5.554,0,0,0,298.288,95.239Zm21.989-21.991a5.554,5.554,0,1,0,7.855,0A5.554,5.554,0,0,0,320.277,73.248Zm21.991-21.989a5.553,5.553,0,1,0,7.853,0A5.554,5.554,0,0,0,342.268,51.259Zm21.989-21.991a5.553,5.553,0,1,0,7.853,0A5.554,5.554,0,0,0,364.257,29.268ZM77.606,358.326a5.554,5.554,0,1,0,7.855,0A5.556,5.556,0,0,0,77.606,358.326ZM99.6,336.337a5.553,5.553,0,1,0,7.853,0A5.554,5.554,0,0,0,99.6,336.337Zm21.989-21.989a5.554,5.554,0,1,0,7.855,0A5.554,5.554,0,0,0,121.585,314.349Zm21.991-21.991a5.553,5.553,0,1,0,7.853,0A5.55,5.55,0,0,0,143.576,292.358Zm21.989-21.989a5.553,5.553,0,1,0,7.853,0A5.554,5.554,0,0,0,165.565,270.369Zm21.991-21.991a5.554,5.554,0,1,0,7.853,0A5.552,5.552,0,0,0,187.556,248.379Zm21.989-21.989a5.553,5.553,0,1,0,7.853,0A5.554,5.554,0,0,0,209.544,226.39ZM231.533,204.4a5.554,5.554,0,1,0,7.855,0A5.554,5.554,0,0,0,231.533,204.4Zm21.991-21.991a5.553,5.553,0,1,0,7.853,0A5.554,5.554,0,0,0,253.524,182.41Zm21.989-21.989a5.554,5.554,0,1,0,7.855,0A5.554,5.554,0,0,0,275.513,160.422ZM297.5,138.431a5.553,5.553,0,1,0,7.853,0A5.554,5.554,0,0,0,297.5,138.431Zm21.989-21.989a5.553,5.553,0,1,0,7.853,0A5.554,5.554,0,0,0,319.492,116.442Zm21.991-21.991a5.554,5.554,0,1,0,7.853,0A5.552,5.552,0,0,0,341.483,94.451Zm21.989-21.989a5.553,5.553,0,1,0,7.853,0A5.554,5.554,0,0,0,363.471,72.463Zm21.991-21.989a5.553,5.553,0,1,0,7.853,0A5.55,5.55,0,0,0,385.462,50.474ZM98.812,379.532a5.553,5.553,0,1,0,7.853,0A5.55,5.55,0,0,0,98.812,379.532ZM120.8,357.541a5.554,5.554,0,1,0,7.853,0A5.556,5.556,0,0,0,120.8,357.541Zm21.991-21.989a5.553,5.553,0,1,0,7.853,0A5.55,5.55,0,0,0,142.791,335.552Zm21.989-21.991a5.554,5.554,0,1,0,7.853,0A5.556,5.556,0,0,0,164.78,313.562Zm21.989-21.989a5.554,5.554,0,1,0,7.855,0A5.554,5.554,0,0,0,186.769,291.573Zm21.991-21.989a5.553,5.553,0,1,0,7.853,0A5.554,5.554,0,0,0,208.759,269.584Zm21.989-21.991a5.554,5.554,0,1,0,7.855,0A5.554,5.554,0,0,0,230.748,247.593ZM252.739,225.6a5.553,5.553,0,1,0,7.853,0A5.554,5.554,0,0,0,252.739,225.6Zm21.989-21.991a5.554,5.554,0,1,0,7.853,0A5.556,5.556,0,0,0,274.727,203.614Zm21.991-21.989a5.553,5.553,0,1,0,7.853,0A5.55,5.55,0,0,0,296.718,181.625Zm21.989-21.989a5.553,5.553,0,1,0,7.853,0A5.554,5.554,0,0,0,318.707,159.637ZM340.7,137.646a5.554,5.554,0,1,0,7.855,0A5.554,5.554,0,0,0,340.7,137.646Zm21.991-21.989a5.553,5.553,0,1,0,7.853,0A5.554,5.554,0,0,0,362.686,115.657Zm21.989-21.991a5.554,5.554,0,1,0,7.855,0A5.554,5.554,0,0,0,384.675,93.666Zm21.991-21.989a5.553,5.553,0,1,0,7.853,0A5.55,5.55,0,0,0,406.666,71.678ZM120.015,400.735a5.553,5.553,0,1,0,7.853,0A5.554,5.554,0,0,0,120.015,400.735ZM142,378.747a5.554,5.554,0,1,0,7.855,0A5.554,5.554,0,0,0,142,378.747Zm21.991-21.991a5.553,5.553,0,1,0,7.853,0A5.554,5.554,0,0,0,163.995,356.756Zm21.989-21.989a5.554,5.554,0,1,0,7.855,0A5.554,5.554,0,0,0,185.983,334.767Zm21.991-21.991a5.554,5.554,0,1,0,7.853,0A5.556,5.556,0,0,0,207.974,312.777Zm21.989-21.989a5.553,5.553,0,1,0,7.853,0A5.554,5.554,0,0,0,229.963,290.788ZM251.954,268.8a5.554,5.554,0,1,0,7.853,0A5.552,5.552,0,0,0,251.954,268.8Zm21.989-21.989a5.553,5.553,0,1,0,7.853,0A5.554,5.554,0,0,0,273.942,246.808Zm21.989-21.989a5.554,5.554,0,1,0,7.855,0A5.554,5.554,0,0,0,295.931,224.82Zm21.991-21.991a5.554,5.554,0,1,0,7.853,0A5.556,5.556,0,0,0,317.922,202.829Zm21.989-21.989a5.554,5.554,0,1,0,7.855,0A5.554,5.554,0,0,0,339.911,180.84ZM361.9,158.849a5.554,5.554,0,1,0,7.853,0A5.552,5.552,0,0,0,361.9,158.849Zm21.989-21.989a5.553,5.553,0,1,0,7.853,0A5.554,5.554,0,0,0,383.89,136.861Zm21.991-21.989a5.553,5.553,0,1,0,7.853,0A5.55,5.55,0,0,0,405.881,114.872Zm21.989-21.991a5.553,5.553,0,1,0,7.853,0A5.554,5.554,0,0,0,427.869,92.881Z" transform="translate(76.171 112.771)" opacity="0.3" fill="url(#linear-gradient-15)" style="mix-blend-mode: screen;isolation: isolate"/>
        <path id="Path_6954" data-name="Path 6954" d="M539.371,983.165h0a37.063,37.063,0,0,1,0-52.414l789.83-789.83a37.06,37.06,0,0,1,52.414,0h0a37.063,37.063,0,0,1,0,52.414l-789.83,789.83A37.063,37.063,0,0,1,539.371,983.165Z" transform="translate(697.522 350.209)" opacity="0.3" fill="url(#linear-gradient-3)"/>
        <path id="Path_6955" data-name="Path 6955" d="M675.941,656.444h0a37.065,37.065,0,0,1,0-52.416l366.083-366.083a37.063,37.063,0,0,1,52.414,0h0a37.066,37.066,0,0,1,0,52.416L728.355,656.444A37.063,37.063,0,0,1,675.941,656.444Z" transform="translate(838.724 450.526)" opacity="0.3" fill="url(#linear-gradient-17)"/>
        <path id="Path_6956" data-name="Path 6956" d="M-120.23,953.908h0a37.063,37.063,0,0,1,0-52.414L669.6,111.664a37.063,37.063,0,0,1,52.414,0h0a37.063,37.063,0,0,1,0,52.414l-789.83,789.83A37.059,37.059,0,0,1-120.23,953.908Z" transform="translate(15.547 319.961)" opacity="0.3" fill="url(#linear-gradient-3)"/>
        <path id="Path_6957" data-name="Path 6957" d="M-112.781,925.464h0a37.059,37.059,0,0,1,0-52.414L677.049,83.22a37.063,37.063,0,0,1,52.414,0h0a37.063,37.063,0,0,1,0,52.414l-789.83,789.83A37.063,37.063,0,0,1-112.781,925.464Z" transform="translate(23.247 290.552)" opacity="0.3" fill="url(#linear-gradient-3)" style="mix-blend-mode: multiply;isolation: isolate"/>
        <path id="Path_6958" data-name="Path 6958" d="M-54.56,1059.278h0a37.063,37.063,0,0,1,0-52.414l789.83-789.83a37.063,37.063,0,0,1,52.414,0h0a37.063,37.063,0,0,1,0,52.414l-789.83,789.83A37.063,37.063,0,0,1-54.56,1059.278Z" transform="translate(83.444 428.905)" opacity="0.6" fill="url(#linear-gradient-3)" style="mix-blend-mode: multiply;isolation: isolate"/>
        <path id="Path_6959" data-name="Path 6959" d="M-41.972,713.642h0a37.059,37.059,0,0,1,0-52.414L747.858-128.6a37.063,37.063,0,0,1,52.414,0h0a37.063,37.063,0,0,1,0,52.414L10.442,713.642A37.059,37.059,0,0,1-41.972,713.642Z" transform="translate(96.458 71.545)" opacity="0.3" fill="url(#linear-gradient-3)"/>
        <path id="Path_6960" data-name="Path 6960" d="M-135.265,644.444h0a37.059,37.059,0,0,1,0-52.414L654.565-197.8a37.063,37.063,0,0,1,52.414,0h0a37.063,37.063,0,0,1,0,52.414l-789.83,789.83A37.063,37.063,0,0,1-135.265,644.444Z" transform="translate(0 0)" opacity="0.3" fill="url(#linear-gradient-3)"/>
        <path id="Path_6961" data-name="Path 6961" d="M-126.041,668.74h0a37.063,37.063,0,0,1,0-52.414L663.789-173.5a37.063,37.063,0,0,1,52.414,0h0a37.063,37.063,0,0,1,0,52.414L-73.627,668.74A37.059,37.059,0,0,1-126.041,668.74Z" transform="translate(9.539 25.12)" opacity="0.3" fill="url(#linear-gradient-3)" style="mix-blend-mode: multiply;isolation: isolate"/>
        <path id="Path_6962" data-name="Path 6962" d="M-70.081,705.94h0a37.063,37.063,0,0,1,0-52.414L719.749-136.3a37.059,37.059,0,0,1,52.414,0h0a37.063,37.063,0,0,1,0,52.414L-17.667,705.94A37.063,37.063,0,0,1-70.081,705.94Z" transform="translate(67.397 63.58)" opacity="0.3" fill="url(#linear-gradient-3)" style="mix-blend-mode: multiply;isolation: isolate"/>
        <g id="Group_33950" data-name="Group 33950" transform="translate(289.461 100.442)" opacity="0.6">
          <line id="Line_28" data-name="Line 28" y1="228.703" x2="228.703" transform="translate(1024.177 837.896)" fill="none" stroke="#707070" stroke-linecap="round" stroke-miterlimit="10" stroke-width="4" opacity="0.4"/>
          <line id="Line_29" data-name="Line 29" y1="228.703" x2="228.703" transform="translate(1180.182 889.983)" fill="none" stroke="#707070" stroke-linecap="round" stroke-miterlimit="10" stroke-width="4" opacity="0.4"/>
          <line id="Line_30" data-name="Line 30" y1="228.703" x2="228.703" transform="translate(1228.385 290.303)" fill="none" stroke="#707070" stroke-linecap="round" stroke-miterlimit="10" stroke-width="4" opacity="0.4"/>
          <line id="Line_31" data-name="Line 31" y1="82.945" x2="82.945" transform="translate(1150.591 513.295)" fill="none" stroke="#707070" stroke-linecap="round" stroke-miterlimit="10" stroke-width="4" opacity="0.4"/>
          <line id="Line_32" data-name="Line 32" y1="228.703" x2="228.703" transform="translate(1012.646 69.775)" fill="none" stroke="#707070" stroke-linecap="round" stroke-miterlimit="10" stroke-width="4" opacity="0.4"/>
          <line id="Line_33" data-name="Line 33" y1="228.703" x2="228.703" transform="translate(1221.064 812.708)" fill="none" stroke="#707070" stroke-linecap="round" stroke-miterlimit="10" stroke-width="4" opacity="0.4"/>
          <line id="Line_34" data-name="Line 34" y1="228.703" x2="228.703" transform="translate(1320.511 825.952)" fill="none" stroke="#707070" stroke-linecap="round" stroke-miterlimit="10" stroke-width="4" opacity="0.3"/>
          <line id="Line_35" data-name="Line 35" y1="228.703" x2="228.703" transform="translate(152.37 953.411)" fill="none" stroke="#707070" stroke-linecap="round" stroke-miterlimit="10" stroke-width="4" opacity="0.3"/>
          <line id="Line_36" data-name="Line 36" y1="228.703" x2="228.703" transform="translate(255.428 888.923)" fill="none" stroke="#707070" stroke-linecap="round" stroke-miterlimit="10" stroke-width="4" opacity="0.3"/>
          <line id="Line_37" data-name="Line 37" y1="228.703" x2="228.703" transform="translate(346.837 947.276)" fill="none" stroke="#707070" stroke-linecap="round" stroke-miterlimit="10" stroke-width="4" opacity="0.3"/>
          <line id="Line_38" data-name="Line 38" y1="228.703" x2="228.703" transform="translate(77.933 333.277)" fill="none" stroke="#707070" stroke-linecap="round" stroke-miterlimit="10" stroke-width="4" opacity="0.3"/>
          <line id="Line_39" data-name="Line 39" y1="228.703" x2="228.703" transform="translate(0 377.658)" fill="none" stroke="#707070" stroke-linecap="round" stroke-miterlimit="10" stroke-width="4" opacity="0.3"/>
          <line id="Line_40" data-name="Line 40" y1="228.703" x2="228.703" transform="translate(281.041)" fill="none" stroke="#707070" stroke-linecap="round" stroke-miterlimit="10" stroke-width="4" opacity="0.3"/>
          <line id="Line_41" data-name="Line 41" y1="228.703" x2="228.703" transform="translate(203.109 44.382)" fill="none" stroke="#707070" stroke-linecap="round" stroke-miterlimit="10" stroke-width="4" opacity="0.3"/>
          <line id="Line_42" data-name="Line 42" y1="228.703" x2="228.703" transform="translate(86.765 571.054)" fill="none" stroke="#707070" stroke-linecap="round" stroke-miterlimit="10" stroke-width="4" opacity="0.3"/>
          <line id="Line_43" data-name="Line 43" y1="228.703" x2="228.703" transform="translate(1045.435 8.94)" fill="none" stroke="#707070" stroke-linecap="round" stroke-miterlimit="10" stroke-width="4" opacity="0.4"/>
        </g>
        <g id="Group_33951" data-name="Group 33951" transform="translate(421.592 893.431)" opacity="0.4">
          <path id="Path_6963" data-name="Path 6963" d="M133,436.125c11.439-11.439,22.945.067,34.383-11.372s-.063-22.949,11.38-34.392,22.945.065,34.385-11.374-.059-22.953,11.388-34.4,22.953.059,34.4-11.39" transform="translate(-133.001 -333.198)" fill="none" stroke="#a29dff" stroke-linecap="round" stroke-miterlimit="10" stroke-width="4"/>
        </g>
        <g id="Group_33952" data-name="Group 33952" transform="translate(1321.941 626.416)" opacity="0.2">
          <path id="Path_6964" data-name="Path 6964" d="M575.668,267.47c7.129-7.127,12.881-1.375,20.01-8.5s1.371-12.879,8.5-20,12.883-1.379,20.014-8.508,1.383-12.889,8.518-20.024,12.887-1.383,20.024-8.518" transform="translate(-575.668 -201.917)" fill="none" stroke="#c3bfff" stroke-linecap="round" stroke-miterlimit="10" stroke-width="4"/>
        </g>
        <g id="Group_33953" data-name="Group 33953" transform="translate(178.174 889.699)" opacity="0.2">
          <path id="Path_6965" data-name="Path 6965" d="M13.322,396.916c7.129-7.127,12.881-1.375,20.01-8.5s1.371-12.877,8.5-20,12.883-1.379,20.014-8.508,1.383-12.889,8.518-20.024,12.887-1.383,20.024-8.518" transform="translate(-13.322 -331.363)" fill="none" stroke="#c3bfff" stroke-linecap="round" stroke-miterlimit="10" stroke-width="4"/>
        </g>
      </g>
    </g>
  </g>
</svg>
